<svg xmlns="http://www.w3.org/2000/svg" viewBox="0 0 1800 1100"><defs><linearGradient id="sky" x2="0" y2="1"><stop stop-color="#0d2847"/><stop offset=".55" stop-color="#50768a"/><stop offset="1" stop-color="#e1a66f"/></linearGradient><linearGradient id="ground" x2="0" y2="1"><stop stop-color="#324d57"/><stop offset="1" stop-color="#101e2b"/></linearGradient></defs><rect width="1800" height="1100" fill="url(#sky)"/><circle cx="1320" cy="300" r="112" fill="#f4c38c" opacity=".8"/><path d="M0 625Q330 530 650 630t620-18q260-105 530-34v522H0Z" fill="#425d61"/><path d="M0 770q400-110 730 0t1070-50v380H0Z" fill="url(#ground)"/><g fill="#142c3b" stroke="#a8bdba" stroke-width="6" opacity=".95"><path d="M250 790V470h45v320m-12-290h112v25H283m0 68h172v24H283m0 74h185v24H283m0 74h163v24H283"/><path d="M390 790V396h34v394m-7-340h93v22h-93m0 67h128v22H417m0 68h120v22H417m0 69h88v22h-88"/><path d="M580 790V530h35v260m-5-230h123v20H610m-0 62h152v20H610m0 62h122v20H610"/><path d="M875 790V380h45v410m-9-367h93v22h-93m0 66h147v22H911m0 65h120v22H911m0 65h170v22H911"/><path d="M1100 790V500h43v290m-6-258h128v22h-128m0 68h143v22h-143m0 69h116v22h-116"/></g><g fill="#f5a861" opacity=".8"><circle cx="305" cy="525" r="9"/><circle cx="345" cy="625" r="9"/><circle cx="459" cy="490" r="8"/><circle cx="654" cy="598" r="9"/><circle cx="963" cy="447" r="10"/><circle cx="1040" cy="638" r="9"/><circle cx="1200" cy="553" r="8"/></g><g stroke="#d4d8ce" stroke-width="9" opacity=".6"><path d="M150 850 520 668 870 812 1240 650 1650 825" fill="none"/><path d="m770 810 0-190m-70 90 70-90 75 80m-75-80-80-55m80 55 75-55" fill="none"/></g></svg>
